<!-- Icon by icons8, modified by Heimskr -->
<svg xmlns="http://www.w3.org/2000/svg" class="icon icon-tabler icon-tabler-brand-discord" width="24" height="24" viewBox="0 0 48 48" stroke="currentColor" fill="none" stroke-linecap="round" stroke-linejoin="round">
	<path stroke-width="2.5" d="M32.363,36.118L35.188,40c1.938-0.062,9.25-1.5,11.812-6c0-9.59-4.167-20.76-6-22.453C37.211,8.502,31,8,31,8s-0.495,1.103-0.626,2.476"/>
	<path stroke-width="2.5" d="M31.5 22A3.5 4 0 1 0 31.5 30 3.5 4 0 1 0 31.5 22zM19.626 10.476C19.495 9.103 19 8 19 8s-6.211.502-10 3.547C7.167 13.24 3 24.41 3 34c2.562 4.5 9.875 5.938 11.812 6l2.825-3.882"/>
	<path stroke-width="2.5" d="M10.513 32.759c0 0 4.8 4.241 14.487 4.241s14.487-4.241 14.487-4.241M38.051 13.428C33.14 10.382 27.122 10 25 10s-8.14.382-13.051 3.428M18.5 22A3.5 4 0 1 0 18.5 30 3.5 4 0 1 0 18.5 22z"/>
</svg>
