<svg fill="#000000" xmlns="http://www.w3.org/2000/svg"  viewBox="0 0 50 50" width="50px" height="50px"><path fill="none" stroke="#000000" stroke-linecap="round" stroke-linejoin="round" stroke-miterlimit="10" stroke-width="2" d="M32.4,36.1l2.8,3.9c1.9-0.1,9.2-1.5,11.8-6c0-9.6-4.2-20.8-6-22.5C37.2,8.5,31,8,31,8s-0.5,1.1-0.6,2.5"/><path fill="none" stroke="#000000" stroke-linecap="round" stroke-linejoin="round" stroke-miterlimit="10" stroke-width="2" d="M19.6,10.5C19.5,9.1,19,8,19,8s-6.2,0.5-10,3.5C7.2,13.2,3,24.4,3,34c2.6,4.5,9.9,5.9,11.8,6l2.8-3.9"/><path fill="none" stroke="#000000" stroke-linecap="round" stroke-linejoin="round" stroke-miterlimit="10" stroke-width="2" d="M10.5,32.8c0,0,4.8,4.2,14.5,4.2s14.5-4.2,14.5-4.2 M38.1,13.4C33.1,10.4,27.1,10,25,10s-8.1,0.4-13.1,3.4"/><path fill="none" stroke="#000000" stroke-linecap="round" stroke-linejoin="round" stroke-miterlimit="10" stroke-width="2" d="M31.5,22c-1.9,0-3.5,1.8-3.5,4s1.6,4,3.5,4s3.5-1.8,3.5-4S33.4,22,31.5,22L31.5,22z"/><ellipse cx="18.5" cy="26" fill="none" stroke="#000000" stroke-linecap="round" stroke-linejoin="round" stroke-miterlimit="10" stroke-width="2" rx="3.5" ry="4"/></svg>